# xmcd
#
# Track frame offsets:
#	150
#	29129
#	64583
#	105756
#	124355
#	140687
#	163759
#
# Disc length: 2644 seconds
# Revision: 1
# Processed by: cddbd v1.5.2PL0 Copyright (c) Steve Scherf et al.
# Submitted via: dBpowerAMP V12.0
#
DISCID=610a5207
DTITLE=Robben Ford and The Blue Line - Crossroads Blues and More CD2
DYEAR=2007
DGENRE=Blues: Blues Rock
TTITLE0=Lovin' Cup
TTITLE1=Help The Poor
TTITLE2=Ain't Got Nothin' But The Blues
TTITLE3=Chevrolet
TTITLE4=The Miller's Son
TTITLE5=Tired Of Talkin'
TTITLE6=The Brother (For Jimmie and Stevie)
EXTD=
EXTT0=
EXTT1=
EXTT2=
EXTT3=
EXTT4=
EXTT5=
EXTT6=
PLAYORDER=
